# xmcd
#
# Track frame offsets:
#	150
#	21901
#	40159
#	63647
#	80788
#	103880
#	123689
#	141322
#	162379
#	185834
#	204300
#	220637
#	235922
#	253472
#	275667
#
# Disc length: 3987 seconds
#
# Revision: 1
# Processed by: cddbd v1.5.2PL0 Copyright (c) Steve Scherf et al.
# Submitted via: audiograbber 1.83.01
#
DISCID=f20f910f
DTITLE=Butlers - Various Artist - Spanish Tunes Vol. 2
DYEAR=2013
DGENRE=Easy Listening
TTITLE0=Mogambo Affair - Adoro
TTITLE1=Compasado - Colores
TTITLE2=Mistic Diversions - Quedata
TTITLE3=Adio Shaman - Largest Lounge
TTITLE4=Mauro Bizzotto Ft. Tanja Dankner - Marinera
TTITLE5=Sara Valenzuela - Para Continuar
TTITLE6=Raul Paz - Mulata
TTITLE7=Mo' Horizons - Ay Y N'ama
TTITLE8=Thievery Corporation - Exilio
TTITLE9=Carmen Cuesta Loeb - Llevame
TTITLE10=Pochill - Porqué
TTITLE11=Federico Aubele - La Esquina
TTITLE12=Mystic Diversions - Me As Matado El Corazon
TTITLE13=Leo De La Rosa Ft. Triana - Como Mi Cuerpo A Tu Piel
TTITLE14=Josete Ordonez - Piedras Y Rosas
EXTD=
EXTT0=
EXTT1=
EXTT2=
EXTT3=
EXTT4=
EXTT5=
EXTT6=
EXTT7=
EXTT8=
EXTT9=
EXTT10=
EXTT11=
EXTT12=
EXTT13=
EXTT14=
PLAYORDER=
